<svg width="200" height="200" viewBox="0 0 200 200" xmlns="http://www.w3.org/2000/svg">
  <defs>
    <linearGradient id="emeraldGradient" x1="0%" y1="0%" x2="100%" y2="100%">
      <stop offset="0%" style="stop-color:#10b981;stop-opacity:1" />
      <stop offset="100%" style="stop-color:#059669;stop-opacity:1" />
    </linearGradient>
  </defs>

  <!-- 外圆背景 -->
  <circle cx="100" cy="100" r="90" fill="url(#emeraldGradient)" opacity="0.1"/>

  <!-- 主要图形 - 持续循环的符号 -->
  <g transform="translate(100, 100)">
    <!-- 外环 -->
    <circle cx="0" cy="0" r="60" fill="none" stroke="url(#emeraldGradient)" stroke-width="8" opacity="0.3"/>

    <!-- 内部箭头循环 -->
    <path d="M -30,-30 L -30,-50 L -10,-30 Z" fill="#10b981"/>
    <path d="M 30,-30 L 50,-30 L 30,-10 Z" fill="#10b981"/>
    <path d="M 30,30 L 30,50 L 10,30 Z" fill="#10b981"/>
    <path d="M -30,30 L -50,30 L -30,10 Z" fill="#10b981"/>

    <!-- 中心圆点 -->
    <circle cx="0" cy="0" r="15" fill="url(#emeraldGradient)"/>

    <!-- 内部装饰线条 -->
    <path d="M -40,0 Q -25,-15 0,-15 Q 25,-15 40,0" fill="none" stroke="#10b981" stroke-width="3" opacity="0.6"/>
    <path d="M 0,-40 Q 15,-25 15,0 Q 15,25 0,40" fill="none" stroke="#10b981" stroke-width="3" opacity="0.6"/>
    <path d="M 40,0 Q 25,15 0,15 Q -25,15 -40,0" fill="none" stroke="#10b981" stroke-width="3" opacity="0.6"/>
    <path d="M 0,40 Q -15,25 -15,0 Q -15,-25 0,-40" fill="none" stroke="#10b981" stroke-width="3" opacity="0.6"/>
  </g>
</svg>
